<mxfile host="app.diagrams.net" modified="2024-08-07T13:55:19.570Z" agent="Mozilla/5.0 (Macintosh; Intel Mac OS X 10_15_7) AppleWebKit/537.36 (KHTML, like Gecko) Chrome/127.0.0.0 Safari/537.36" etag="pmZTMiP6WV_ICWStbnwc" version="24.4.4" type="device">
  <diagram name="Page-1" id="AHQAzblaBj1W_UsF0Ypd">
    <mxGraphModel dx="734" dy="402" grid="1" gridSize="10" guides="1" tooltips="1" connect="1" arrows="1" fold="1" page="1" pageScale="1" pageWidth="850" pageHeight="1100" math="0" shadow="0">
      <root>
        <mxCell id="0" />
        <mxCell id="1" parent="0" />
        <mxCell id="lLVUd-VcHoC9c0e-R4Fz-11" style="edgeStyle=orthogonalEdgeStyle;rounded=0;orthogonalLoop=1;jettySize=auto;html=1;entryX=0;entryY=0.7;entryDx=0;entryDy=0;" edge="1" parent="1" source="lLVUd-VcHoC9c0e-R4Fz-1" target="lLVUd-VcHoC9c0e-R4Fz-23">
          <mxGeometry relative="1" as="geometry">
            <mxPoint x="380" y="250" as="targetPoint" />
            <Array as="points">
              <mxPoint x="350" y="250" />
              <mxPoint x="410" y="251" />
            </Array>
          </mxGeometry>
        </mxCell>
        <mxCell id="lLVUd-VcHoC9c0e-R4Fz-1" value="Scraper" style="rounded=0;whiteSpace=wrap;html=1;" vertex="1" parent="1">
          <mxGeometry x="200" y="220" width="120" height="60" as="geometry" />
        </mxCell>
        <mxCell id="lLVUd-VcHoC9c0e-R4Fz-4" style="edgeStyle=orthogonalEdgeStyle;rounded=0;orthogonalLoop=1;jettySize=auto;html=1;entryX=0.368;entryY=-0.076;entryDx=0;entryDy=0;entryPerimeter=0;" edge="1" parent="1" source="lLVUd-VcHoC9c0e-R4Fz-2" target="lLVUd-VcHoC9c0e-R4Fz-1">
          <mxGeometry relative="1" as="geometry">
            <mxPoint x="240" y="160" as="targetPoint" />
          </mxGeometry>
        </mxCell>
        <mxCell id="lLVUd-VcHoC9c0e-R4Fz-2" value="Rivalry.com&lt;div&gt;(matches &amp;amp; odds)&lt;/div&gt;" style="rounded=0;whiteSpace=wrap;html=1;" vertex="1" parent="1">
          <mxGeometry x="30" y="140" width="130" height="60" as="geometry" />
        </mxCell>
        <mxCell id="lLVUd-VcHoC9c0e-R4Fz-3" value="Liquipedia.com&lt;br&gt;(Game, Tournament, Team Statistics)" style="rounded=0;whiteSpace=wrap;html=1;" vertex="1" parent="1">
          <mxGeometry x="30" y="320" width="120" height="60" as="geometry" />
        </mxCell>
        <mxCell id="lLVUd-VcHoC9c0e-R4Fz-5" style="edgeStyle=orthogonalEdgeStyle;rounded=0;orthogonalLoop=1;jettySize=auto;html=1;entryX=0.342;entryY=1.05;entryDx=0;entryDy=0;entryPerimeter=0;" edge="1" parent="1" source="lLVUd-VcHoC9c0e-R4Fz-3" target="lLVUd-VcHoC9c0e-R4Fz-1">
          <mxGeometry relative="1" as="geometry" />
        </mxCell>
        <mxCell id="lLVUd-VcHoC9c0e-R4Fz-17" style="edgeStyle=orthogonalEdgeStyle;rounded=0;orthogonalLoop=1;jettySize=auto;html=1;entryX=0;entryY=0.75;entryDx=0;entryDy=0;exitX=1;exitY=0.7;exitDx=0;exitDy=0;" edge="1" parent="1" source="lLVUd-VcHoC9c0e-R4Fz-23" target="lLVUd-VcHoC9c0e-R4Fz-16">
          <mxGeometry relative="1" as="geometry">
            <mxPoint x="500" y="250.090909090909" as="sourcePoint" />
            <Array as="points">
              <mxPoint x="470" y="240" />
              <mxPoint x="515" y="240" />
              <mxPoint x="515" y="375" />
            </Array>
          </mxGeometry>
        </mxCell>
        <mxCell id="lLVUd-VcHoC9c0e-R4Fz-20" style="edgeStyle=orthogonalEdgeStyle;rounded=0;orthogonalLoop=1;jettySize=auto;html=1;entryX=0;entryY=0.25;entryDx=0;entryDy=0;" edge="1" parent="1" source="lLVUd-VcHoC9c0e-R4Fz-12" target="lLVUd-VcHoC9c0e-R4Fz-19">
          <mxGeometry relative="1" as="geometry">
            <Array as="points">
              <mxPoint x="725" y="140" />
              <mxPoint x="725" y="266" />
              <mxPoint x="770" y="266" />
            </Array>
          </mxGeometry>
        </mxCell>
        <mxCell id="lLVUd-VcHoC9c0e-R4Fz-12" value="XGBoost models" style="rounded=0;whiteSpace=wrap;html=1;" vertex="1" parent="1">
          <mxGeometry x="560" y="110" width="120" height="60" as="geometry" />
        </mxCell>
        <mxCell id="lLVUd-VcHoC9c0e-R4Fz-21" style="edgeStyle=orthogonalEdgeStyle;rounded=0;orthogonalLoop=1;jettySize=auto;html=1;" edge="1" parent="1" source="lLVUd-VcHoC9c0e-R4Fz-13" target="lLVUd-VcHoC9c0e-R4Fz-19">
          <mxGeometry relative="1" as="geometry" />
        </mxCell>
        <mxCell id="lLVUd-VcHoC9c0e-R4Fz-13" value="ANN models" style="rounded=0;whiteSpace=wrap;html=1;" vertex="1" parent="1">
          <mxGeometry x="560" y="220" width="120" height="60" as="geometry" />
        </mxCell>
        <mxCell id="lLVUd-VcHoC9c0e-R4Fz-22" style="edgeStyle=orthogonalEdgeStyle;rounded=0;orthogonalLoop=1;jettySize=auto;html=1;entryX=0;entryY=0.5;entryDx=0;entryDy=0;" edge="1" parent="1" source="lLVUd-VcHoC9c0e-R4Fz-16" target="lLVUd-VcHoC9c0e-R4Fz-19">
          <mxGeometry relative="1" as="geometry" />
        </mxCell>
        <mxCell id="lLVUd-VcHoC9c0e-R4Fz-16" value="Simulation models" style="rounded=0;whiteSpace=wrap;html=1;" vertex="1" parent="1">
          <mxGeometry x="560" y="330" width="120" height="60" as="geometry" />
        </mxCell>
        <mxCell id="lLVUd-VcHoC9c0e-R4Fz-18" value="" style="shape=actor;whiteSpace=wrap;html=1;" vertex="1" parent="1">
          <mxGeometry x="795" y="160" width="70" height="70" as="geometry" />
        </mxCell>
        <mxCell id="lLVUd-VcHoC9c0e-R4Fz-27" style="edgeStyle=orthogonalEdgeStyle;rounded=0;orthogonalLoop=1;jettySize=auto;html=1;entryX=0;entryY=0.7;entryDx=0;entryDy=0;" edge="1" parent="1" source="lLVUd-VcHoC9c0e-R4Fz-19" target="lLVUd-VcHoC9c0e-R4Fz-26">
          <mxGeometry relative="1" as="geometry" />
        </mxCell>
        <mxCell id="lLVUd-VcHoC9c0e-R4Fz-19" value="Decision point on Team to Bet" style="rounded=0;whiteSpace=wrap;html=1;" vertex="1" parent="1">
          <mxGeometry x="770" y="236" width="120" height="60" as="geometry" />
        </mxCell>
        <mxCell id="lLVUd-VcHoC9c0e-R4Fz-24" style="edgeStyle=orthogonalEdgeStyle;rounded=0;orthogonalLoop=1;jettySize=auto;html=1;entryX=0;entryY=0.75;entryDx=0;entryDy=0;" edge="1" parent="1" source="lLVUd-VcHoC9c0e-R4Fz-23" target="lLVUd-VcHoC9c0e-R4Fz-12">
          <mxGeometry relative="1" as="geometry" />
        </mxCell>
        <mxCell id="lLVUd-VcHoC9c0e-R4Fz-25" style="edgeStyle=orthogonalEdgeStyle;rounded=0;orthogonalLoop=1;jettySize=auto;html=1;entryX=0;entryY=0.5;entryDx=0;entryDy=0;" edge="1" parent="1" source="lLVUd-VcHoC9c0e-R4Fz-23" target="lLVUd-VcHoC9c0e-R4Fz-13">
          <mxGeometry relative="1" as="geometry" />
        </mxCell>
        <mxCell id="lLVUd-VcHoC9c0e-R4Fz-23" value="Database (Firebase)" style="shape=datastore;whiteSpace=wrap;html=1;" vertex="1" parent="1">
          <mxGeometry x="410" y="200" width="60" height="90" as="geometry" />
        </mxCell>
        <mxCell id="lLVUd-VcHoC9c0e-R4Fz-29" style="edgeStyle=orthogonalEdgeStyle;rounded=0;orthogonalLoop=1;jettySize=auto;html=1;entryX=0.5;entryY=1;entryDx=0;entryDy=0;" edge="1" parent="1" source="lLVUd-VcHoC9c0e-R4Fz-26" target="lLVUd-VcHoC9c0e-R4Fz-23">
          <mxGeometry relative="1" as="geometry">
            <Array as="points">
              <mxPoint x="1050" y="470" />
              <mxPoint x="440" y="470" />
            </Array>
          </mxGeometry>
        </mxCell>
        <mxCell id="lLVUd-VcHoC9c0e-R4Fz-26" value="Database (Firebase)" style="shape=datastore;whiteSpace=wrap;html=1;" vertex="1" parent="1">
          <mxGeometry x="1021" y="200" width="60" height="93" as="geometry" />
        </mxCell>
        <mxCell id="lLVUd-VcHoC9c0e-R4Fz-28" value="Record bets for model evaluation" style="text;html=1;align=center;verticalAlign=middle;whiteSpace=wrap;rounded=0;" vertex="1" parent="1">
          <mxGeometry x="890" y="310" width="160" height="30" as="geometry" />
        </mxCell>
        <mxCell id="lLVUd-VcHoC9c0e-R4Fz-30" value="Model retraining at the end of every tournament" style="text;html=1;align=center;verticalAlign=middle;whiteSpace=wrap;rounded=0;" vertex="1" parent="1">
          <mxGeometry x="660" y="430" width="160" height="30" as="geometry" />
        </mxCell>
      </root>
    </mxGraphModel>
  </diagram>
</mxfile>
